<svg xmlns="http://www.w3.org/2000/svg" xmlns:xlink="http://www.w3.org/1999/xlink" width="230" zoomAndPan="magnify" viewBox="0 0 173.04 30.000001" height="40" preserveAspectRatio="xMidYMid meet" version="1.0"><defs><g/></defs><g fill="#000000" fill-opacity="1"><g transform="translate(2.350194, 22.299303)"><g><path d="M 21.875 -15.640625 C 21.882812 -15.617188 21.890625 -15.554688 21.890625 -15.453125 C 21.890625 -15.148438 21.789062 -14.9375 21.59375 -14.8125 C 21.40625 -14.6875 21.015625 -14.523438 20.421875 -14.328125 C 20.171875 -14.296875 19.925781 -14.179688 19.6875 -13.984375 C 19.445312 -13.785156 19.210938 -13.601562 18.984375 -13.4375 C 18.753906 -13.269531 18.503906 -13.1875 18.234375 -13.1875 C 18.054688 -13.1875 17.859375 -13.097656 17.640625 -12.921875 C 17.429688 -12.753906 17.175781 -12.671875 16.875 -12.671875 L 16.796875 -12.671875 C 16.703125 -12.671875 16.628906 -12.644531 16.578125 -12.59375 C 16.523438 -12.550781 16.472656 -12.503906 16.421875 -12.453125 C 16.273438 -12.296875 16.09375 -12.1875 15.875 -12.125 C 15.664062 -12.0625 15.460938 -12.003906 15.265625 -11.953125 C 15.066406 -11.878906 14.882812 -11.804688 14.71875 -11.734375 C 14.5625 -11.660156 14.390625 -11.597656 14.203125 -11.546875 C 13.910156 -11.472656 13.585938 -11.398438 13.234375 -11.328125 C 12.890625 -11.265625 12.703125 -11.148438 12.671875 -10.984375 C 12.523438 -10.234375 12.34375 -9.453125 12.125 -8.640625 C 11.914062 -7.835938 11.695312 -7.085938 11.46875 -6.390625 C 11.3125 -6.015625 11.15625 -5.671875 11 -5.359375 C 10.851562 -5.046875 10.75 -4.691406 10.6875 -4.296875 C 10.65625 -4.015625 10.570312 -3.734375 10.4375 -3.453125 C 10.300781 -3.179688 10.234375 -2.921875 10.234375 -2.671875 C 10.234375 -2.460938 10.203125 -2.25 10.140625 -2.03125 C 10.078125 -1.820312 10.03125 -1.609375 10 -1.390625 C 9.976562 -1.265625 9.914062 -1.007812 9.8125 -0.625 C 9.707031 -0.238281 9.578125 0.164062 9.421875 0.59375 C 9.273438 1.019531 9.109375 1.359375 8.921875 1.609375 C 8.535156 2.140625 8.203125 2.503906 7.921875 2.703125 C 7.648438 2.910156 7.375 3.035156 7.09375 3.078125 C 6.820312 3.128906 6.472656 3.195312 6.046875 3.28125 L 6.125 3.234375 L 5.78125 3.3125 L 5.5 3.265625 C 5.414062 3.265625 5.34375 3.265625 5.28125 3.265625 C 5.21875 3.273438 5.148438 3.28125 5.078125 3.28125 C 4.773438 3.28125 4.414062 3.222656 4 3.109375 C 3.59375 2.992188 3.191406 2.8125 2.796875 2.5625 C 2.410156 2.3125 2.082031 1.992188 1.8125 1.609375 C 1.757812 1.515625 1.664062 1.351562 1.53125 1.125 C 1.40625 0.90625 1.28125 0.640625 1.15625 0.328125 C 1.03125 0.015625 0.96875 -0.296875 0.96875 -0.609375 C 0.96875 -1.003906 0.992188 -1.300781 1.046875 -1.5 C 1.097656 -1.695312 1.175781 -1.925781 1.28125 -2.1875 C 1.28125 -2.1875 1.3125 -2.289062 1.375 -2.5 C 1.4375 -2.71875 1.523438 -2.96875 1.640625 -3.25 C 1.753906 -3.539062 1.882812 -3.789062 2.03125 -4 C 2.1875 -4.21875 2.359375 -4.328125 2.546875 -4.328125 C 2.648438 -4.328125 2.742188 -4.238281 2.828125 -4.0625 C 2.921875 -3.882812 2.96875 -3.78125 2.96875 -3.75 C 2.96875 -3.675781 2.945312 -3.585938 2.90625 -3.484375 C 2.875 -3.390625 2.859375 -3.320312 2.859375 -3.28125 C 2.859375 -3.226562 2.863281 -3.171875 2.875 -3.109375 C 2.894531 -3.046875 2.914062 -3 2.9375 -2.96875 L 2.828125 -2.484375 L 2.828125 -2.171875 C 2.828125 -2.078125 2.847656 -2.015625 2.890625 -1.984375 L 2.828125 -2 C 2.847656 -1.914062 2.910156 -1.851562 3.015625 -1.8125 C 3.128906 -1.78125 3.1875 -1.710938 3.1875 -1.609375 L 3.15625 -1.25 C 3.15625 -1.164062 3.203125 -1.035156 3.296875 -0.859375 C 3.398438 -0.691406 3.488281 -0.59375 3.5625 -0.5625 C 3.914062 -0.457031 4.273438 -0.269531 4.640625 0 C 5.003906 0.269531 5.382812 0.40625 5.78125 0.40625 C 5.957031 0.40625 6.109375 0.378906 6.234375 0.328125 C 6.367188 0.285156 6.535156 0.222656 6.734375 0.140625 C 6.984375 0.0234375 7.128906 -0.1875 7.171875 -0.5 C 7.222656 -0.8125 7.316406 -1.117188 7.453125 -1.421875 C 7.628906 -1.753906 7.734375 -2.144531 7.765625 -2.59375 C 7.804688 -3.050781 7.828125 -3.46875 7.828125 -3.84375 C 7.828125 -4.414062 7.890625 -4.972656 8.015625 -5.515625 C 8.140625 -6.066406 8.226562 -6.625 8.28125 -7.1875 C 8.375 -7.757812 8.472656 -8.34375 8.578125 -8.9375 C 8.679688 -9.539062 8.832031 -10.179688 9.03125 -10.859375 C 8.53125 -10.816406 8.023438 -10.78125 7.515625 -10.75 C 7.015625 -10.726562 6.523438 -10.65625 6.046875 -10.53125 C 5.867188 -10.5 5.695312 -10.460938 5.53125 -10.421875 C 5.375 -10.390625 5.207031 -10.375 5.03125 -10.375 C 4.65625 -10.375 4.394531 -10.46875 4.25 -10.65625 C 4.101562 -10.84375 4.03125 -11.023438 4.03125 -11.203125 C 4.03125 -11.285156 4.085938 -11.390625 4.203125 -11.515625 L 4.109375 -11.46875 C 4.128906 -11.625 4.289062 -11.816406 4.59375 -12.046875 C 4.894531 -12.285156 5.25 -12.515625 5.65625 -12.734375 C 6.070312 -12.960938 6.460938 -13.148438 6.828125 -13.296875 C 7.191406 -13.453125 7.445312 -13.53125 7.59375 -13.53125 L 7.75 -13.46875 C 7.789062 -13.488281 7.832031 -13.554688 7.875 -13.671875 C 7.914062 -13.785156 8.019531 -13.84375 8.1875 -13.84375 L 8.453125 -13.84375 C 8.585938 -13.84375 8.707031 -13.875 8.8125 -13.9375 C 8.925781 -14 9.046875 -14.066406 9.171875 -14.140625 L 9.0625 -13.984375 C 9.1875 -14.109375 9.273438 -14.1875 9.328125 -14.21875 C 9.378906 -14.257812 9.488281 -14.28125 9.65625 -14.28125 C 9.832031 -14.28125 9.945312 -14.335938 10 -14.453125 C 10.050781 -14.566406 10.09375 -14.703125 10.125 -14.859375 C 10.164062 -15.023438 10.226562 -15.160156 10.3125 -15.265625 C 10.382812 -15.367188 10.460938 -15.421875 10.546875 -15.421875 C 10.640625 -15.421875 10.734375 -15.46875 10.828125 -15.5625 C 10.859375 -15.632812 10.9375 -15.707031 11.0625 -15.78125 C 11.1875 -15.863281 11.320312 -15.90625 11.46875 -15.90625 C 11.613281 -15.90625 11.738281 -15.8125 11.84375 -15.625 C 11.945312 -15.4375 12.019531 -15.34375 12.0625 -15.34375 C 12.09375 -15.34375 12.144531 -15.351562 12.21875 -15.375 C 12.289062 -15.394531 12.394531 -15.40625 12.53125 -15.40625 C 12.675781 -15.40625 12.816406 -15.390625 12.953125 -15.359375 C 13.085938 -15.328125 13.242188 -15.3125 13.421875 -15.3125 L 14.25 -15.484375 C 14.300781 -15.484375 14.34375 -15.453125 14.375 -15.390625 C 14.414062 -15.328125 14.472656 -15.296875 14.546875 -15.296875 C 14.523438 -15.296875 14.632812 -15.304688 14.875 -15.328125 C 15.113281 -15.359375 15.367188 -15.398438 15.640625 -15.453125 C 15.921875 -15.503906 16.070312 -15.566406 16.09375 -15.640625 C 16.164062 -15.796875 16.332031 -15.921875 16.59375 -16.015625 C 16.863281 -16.117188 17.144531 -16.191406 17.4375 -16.234375 C 17.738281 -16.285156 17.957031 -16.3125 18.09375 -16.3125 L 18.3125 -16.3125 L 19.109375 -16.359375 C 19.285156 -16.359375 19.578125 -16.328125 19.984375 -16.265625 C 20.398438 -16.203125 20.800781 -16.117188 21.1875 -16.015625 C 21.570312 -15.910156 21.800781 -15.785156 21.875 -15.640625 Z M 21.875 -15.640625 "/></g></g></g><g fill="#000000" fill-opacity="1"><g transform="translate(18.332126, 22.299303)"><g><path d="M 11.140625 -9.140625 C 11.453125 -8.929688 11.648438 -8.722656 11.734375 -8.515625 C 11.828125 -8.304688 11.875 -8.132812 11.875 -8 L 11.65625 -7.375 L 11.65625 -7.359375 L 11.546875 -6.5 L 11.4375 -6.25 C 11.351562 -6.164062 11.25 -5.945312 11.125 -5.59375 C 11 -5.25 10.882812 -4.898438 10.78125 -4.546875 C 10.6875 -4.242188 10.59375 -3.984375 10.5 -3.765625 C 10.414062 -3.554688 10.320312 -3.328125 10.21875 -3.078125 C 10.125 -2.828125 10.03125 -2.515625 9.9375 -2.140625 C 9.851562 -1.765625 9.765625 -1.265625 9.671875 -0.640625 L 9.328125 1.609375 C 9.304688 1.660156 9.296875 1.773438 9.296875 1.953125 C 9.296875 2.035156 9.296875 2.125 9.296875 2.21875 C 9.296875 2.3125 9.316406 2.410156 9.359375 2.515625 L 8.609375 2.8125 C 8.585938 2.769531 8.546875 2.707031 8.484375 2.625 C 8.421875 2.550781 8.289062 2.425781 8.09375 2.25 C 7.78125 1.945312 7.578125 1.640625 7.484375 1.328125 C 7.398438 1.023438 7.359375 0.632812 7.359375 0.15625 C 7.359375 -0.0390625 7.359375 -0.226562 7.359375 -0.40625 C 7.367188 -0.59375 7.382812 -0.757812 7.40625 -0.90625 C 7.25 -0.75 7.03125 -0.546875 6.75 -0.296875 C 6.476562 -0.046875 6.125 0.273438 5.6875 0.671875 C 5.550781 0.992188 5.296875 1.273438 4.921875 1.515625 C 4.546875 1.765625 3.9375 2.109375 3.09375 2.546875 C 2.6875 3.003906 2.242188 3.234375 1.765625 3.234375 C 1.460938 3.234375 1.175781 3.097656 0.90625 2.828125 C 0.644531 2.566406 0.457031 2.253906 0.34375 1.890625 C 0.257812 1.609375 0.132812 1.359375 -0.03125 1.140625 C -0.207031 0.929688 -0.359375 0.703125 -0.484375 0.453125 C -0.609375 0.203125 -0.671875 -0.117188 -0.671875 -0.515625 C -0.671875 -0.691406 -0.644531 -0.90625 -0.59375 -1.15625 C -0.550781 -1.40625 -0.476562 -1.695312 -0.375 -2.03125 L -0.140625 -2.296875 C 0.0546875 -2.367188 0.191406 -2.472656 0.265625 -2.609375 C 0.335938 -2.753906 0.4375 -2.96875 0.5625 -3.25 C 0.6875 -3.539062 0.925781 -3.945312 1.28125 -4.46875 L 2.171875 -5.78125 C 2.304688 -5.90625 2.414062 -6.046875 2.5 -6.203125 C 2.59375 -6.359375 2.710938 -6.539062 2.859375 -6.75 C 3.015625 -6.96875 3.265625 -7.222656 3.609375 -7.515625 C 4.410156 -8.597656 5.113281 -9.4375 5.71875 -10.03125 C 6.320312 -10.632812 6.898438 -10.9375 7.453125 -10.9375 C 7.847656 -10.9375 8.269531 -10.710938 8.71875 -10.265625 C 8.945312 -10.242188 9.097656 -10.191406 9.171875 -10.109375 C 9.242188 -10.035156 9.351562 -9.945312 9.5 -9.84375 C 9.65625 -9.75 9.945312 -9.648438 10.375 -9.546875 C 10.394531 -9.546875 10.488281 -9.507812 10.65625 -9.4375 C 10.820312 -9.363281 10.984375 -9.265625 11.140625 -9.140625 Z M 7.484375 -5.859375 C 7.804688 -6.660156 7.984375 -7.0625 8.015625 -7.0625 C 8.015625 -7.269531 7.925781 -7.375 7.75 -7.375 C 7.613281 -7.375 7.335938 -7.195312 6.921875 -6.84375 C 6.710938 -6.738281 6.472656 -6.546875 6.203125 -6.265625 C 5.929688 -5.992188 5.582031 -5.609375 5.15625 -5.109375 C 4.726562 -4.609375 4.160156 -3.957031 3.453125 -3.15625 C 3.398438 -3.0625 3.28125 -2.878906 3.09375 -2.609375 C 2.90625 -2.347656 2.707031 -2.046875 2.5 -1.703125 C 2.289062 -1.367188 2.109375 -1.054688 1.953125 -0.765625 C 1.796875 -0.484375 1.71875 -0.289062 1.71875 -0.1875 C 1.71875 -0.0390625 1.773438 0.03125 1.890625 0.03125 C 2.085938 0.03125 2.382812 -0.175781 2.78125 -0.59375 C 3.1875 -1.019531 3.664062 -1.453125 4.21875 -1.890625 C 4.289062 -2.003906 4.382812 -2.113281 4.5 -2.21875 C 4.613281 -2.320312 4.796875 -2.5 5.046875 -2.75 C 5.296875 -3 5.65625 -3.359375 6.125 -3.828125 C 6.125 -3.929688 6.203125 -4.117188 6.359375 -4.390625 C 6.523438 -4.671875 6.71875 -4.953125 6.9375 -5.234375 C 7.15625 -5.523438 7.335938 -5.734375 7.484375 -5.859375 Z M 7.484375 -5.859375 "/></g></g></g><g fill="#000000" fill-opacity="1"><g transform="translate(30.331934, 22.299303)"><g><path d="M 10.03125 -11.46875 C 10.113281 -11.363281 10.203125 -11.273438 10.296875 -11.203125 C 10.398438 -11.128906 10.453125 -11.003906 10.453125 -10.828125 C 10.453125 -10.234375 10.335938 -9.726562 10.109375 -9.3125 C 9.890625 -8.894531 9.617188 -8.515625 9.296875 -8.171875 C 8.984375 -7.835938 8.660156 -7.515625 8.328125 -7.203125 C 7.992188 -6.890625 7.71875 -6.550781 7.5 -6.1875 C 7.28125 -5.820312 7.171875 -5.398438 7.171875 -4.921875 L 7.1875 -4.734375 C 7.300781 -4.015625 7.445312 -3.300781 7.625 -2.59375 C 7.800781 -1.882812 7.925781 -1.179688 8 -0.484375 C 8 -0.484375 7.925781 -0.332031 7.78125 -0.03125 C 7.632812 0.269531 7.445312 0.617188 7.21875 1.015625 C 6.988281 1.410156 6.722656 1.757812 6.421875 2.0625 C 6.128906 2.363281 5.832031 2.515625 5.53125 2.515625 C 5.070312 2.515625 4.617188 2.5 4.171875 2.46875 C 3.722656 2.445312 3.269531 2.375 2.8125 2.25 C 2.644531 2.207031 2.488281 2.117188 2.34375 1.984375 C 2.207031 1.859375 2.066406 1.75 1.921875 1.65625 C 1.796875 1.582031 1.675781 1.507812 1.5625 1.4375 C 1.445312 1.375 1.335938 1.296875 1.234375 1.203125 C 1.054688 1.054688 0.890625 0.851562 0.734375 0.59375 C 0.585938 0.34375 0.457031 0.113281 0.34375 -0.09375 C 0.238281 -0.3125 0.148438 -0.421875 0.078125 -0.421875 C 0.0546875 -0.421875 0.0351562 -0.414062 0.015625 -0.40625 C 0.00390625 -0.40625 -0.015625 -0.394531 -0.046875 -0.375 C -0.296875 -0.195312 -0.59375 0.0390625 -0.9375 0.34375 C -1.289062 0.644531 -1.640625 0.910156 -1.984375 1.140625 C -2.335938 1.378906 -2.644531 1.5 -2.90625 1.5 C -2.945312 1.5 -3.035156 1.410156 -3.171875 1.234375 C -3.316406 1.066406 -3.390625 0.976562 -3.390625 0.96875 C -3.390625 0.90625 -3.367188 0.828125 -3.328125 0.734375 C -3.285156 0.640625 -3.253906 0.570312 -3.234375 0.53125 C -2.960938 -0.164062 -2.570312 -0.695312 -2.0625 -1.0625 C -1.5625 -1.425781 -1.015625 -1.742188 -0.421875 -2.015625 C 0.160156 -2.296875 0.703125 -2.625 1.203125 -3 C 1.554688 -3.28125 1.925781 -3.550781 2.3125 -3.8125 C 2.695312 -4.082031 3.039062 -4.398438 3.34375 -4.765625 C 3.59375 -5.046875 3.753906 -5.28125 3.828125 -5.46875 C 3.910156 -5.65625 3.957031 -5.847656 3.96875 -6.046875 C 3.976562 -6.253906 4 -6.53125 4.03125 -6.875 C 4.050781 -7.320312 4.144531 -7.75 4.3125 -8.15625 C 4.488281 -8.5625 4.664062 -8.972656 4.84375 -9.390625 C 5.019531 -9.796875 5.15625 -10.21875 5.25 -10.65625 C 5.351562 -11.101562 5.472656 -11.453125 5.609375 -11.703125 C 5.628906 -11.722656 5.738281 -11.832031 5.9375 -12.03125 C 6.132812 -12.238281 6.359375 -12.445312 6.609375 -12.65625 C 6.867188 -12.863281 7.097656 -12.96875 7.296875 -12.96875 C 7.398438 -12.96875 7.488281 -12.941406 7.5625 -12.890625 C 7.851562 -12.742188 8.128906 -12.554688 8.390625 -12.328125 C 8.660156 -12.097656 8.929688 -11.894531 9.203125 -11.71875 C 9.484375 -11.550781 9.757812 -11.46875 10.03125 -11.46875 Z M 5.109375 -0.71875 L 5.109375 -1.546875 C 5.109375 -2.023438 5.03125 -2.492188 4.875 -2.953125 C 4.726562 -3.410156 4.566406 -3.867188 4.390625 -4.328125 L 0.78125 -1.546875 C 0.863281 -1.472656 0.957031 -1.410156 1.0625 -1.359375 C 1.175781 -1.304688 1.300781 -1.28125 1.4375 -1.28125 C 1.550781 -1.28125 1.65625 -1.304688 1.75 -1.359375 C 1.84375 -1.410156 1.953125 -1.4375 2.078125 -1.4375 C 2.191406 -1.4375 2.289062 -1.375 2.375 -1.25 C 2.46875 -1.125 2.554688 -1.0625 2.640625 -1.0625 C 2.679688 -1.0625 2.726562 -1.070312 2.78125 -1.09375 C 2.832031 -1.113281 2.882812 -1.125 2.9375 -1.125 C 3.238281 -1.125 3.554688 -1.039062 3.890625 -0.875 C 4.222656 -0.71875 4.515625 -0.640625 4.765625 -0.640625 C 4.816406 -0.640625 4.867188 -0.648438 4.921875 -0.671875 C 4.972656 -0.703125 5.035156 -0.71875 5.109375 -0.71875 Z M 8 -0.453125 L 8 -0.484375 Z M 8 -0.453125 "/></g></g></g><g fill="#000000" fill-opacity="1"><g transform="translate(39.365202, 22.299303)"><g><path d="M 12.625 -6.546875 C 12.625 -6.265625 12.613281 -5.988281 12.59375 -5.71875 C 12.570312 -5.445312 12.535156 -5.179688 12.484375 -4.921875 C 12.429688 -4.671875 12.347656 -4.425781 12.234375 -4.1875 C 12.128906 -3.957031 12.046875 -3.71875 11.984375 -3.46875 C 11.765625 -2.601562 11.363281 -1.878906 10.78125 -1.296875 C 10.207031 -0.710938 9.519531 -0.191406 8.71875 0.265625 C 8.300781 0.515625 7.878906 0.769531 7.453125 1.03125 C 7.023438 1.300781 6.617188 1.492188 6.234375 1.609375 C 5.984375 1.679688 5.796875 1.734375 5.671875 1.765625 C 5.554688 1.796875 5.40625 1.882812 5.21875 2.03125 C 4.914062 2.25 4.585938 2.398438 4.234375 2.484375 C 3.890625 2.578125 3.507812 2.625 3.09375 2.625 C 2.738281 2.625 2.445312 2.550781 2.21875 2.40625 C 2 2.257812 1.800781 2.101562 1.625 1.9375 C 1.445312 1.769531 1.234375 1.648438 0.984375 1.578125 C 0.671875 1.472656 0.441406 1.300781 0.296875 1.0625 C 0.148438 0.832031 0.0507812 0.570312 0 0.28125 C -0.0507812 0 -0.113281 -0.269531 -0.1875 -0.53125 C -0.1875 -0.5 -0.175781 -0.472656 -0.15625 -0.453125 L -0.1875 -0.78125 L -0.1875 -0.875 C -0.1875 -0.945312 -0.175781 -0.984375 -0.15625 -0.984375 L -0.140625 -0.984375 C -0.222656 -1.128906 -0.265625 -1.300781 -0.265625 -1.5 C -0.265625 -1.695312 -0.242188 -1.953125 -0.203125 -2.265625 C -0.171875 -2.585938 -0.09375 -2.832031 0.03125 -3 C 0.0820312 -3.082031 0.175781 -3.164062 0.3125 -3.25 C 0.457031 -3.332031 0.53125 -3.40625 0.53125 -3.46875 C 0.53125 -3.539062 0.515625 -3.625 0.484375 -3.71875 C 0.460938 -3.820312 0.441406 -3.898438 0.421875 -3.953125 C 0.421875 -4.148438 0.5 -4.320312 0.65625 -4.46875 C 0.820312 -4.625 0.96875 -4.785156 1.09375 -4.953125 C 1.3125 -5.253906 1.515625 -5.578125 1.703125 -5.921875 C 1.890625 -6.265625 2.109375 -6.585938 2.359375 -6.890625 C 2.660156 -7.253906 2.96875 -7.597656 3.28125 -7.921875 C 3.601562 -8.253906 3.925781 -8.582031 4.25 -8.90625 C 4.46875 -9.113281 4.722656 -9.375 5.015625 -9.6875 C 5.304688 -10 5.609375 -10.28125 5.921875 -10.53125 C 6.234375 -10.78125 6.503906 -10.90625 6.734375 -10.90625 C 6.785156 -10.90625 6.835938 -10.894531 6.890625 -10.875 C 6.953125 -10.863281 7.015625 -10.859375 7.078125 -10.859375 C 7.203125 -10.859375 7.296875 -10.914062 7.359375 -11.03125 C 7.421875 -11.144531 7.492188 -11.253906 7.578125 -11.359375 C 7.671875 -11.460938 7.8125 -11.515625 8 -11.515625 C 8 -11.515625 8.113281 -11.460938 8.34375 -11.359375 C 8.570312 -11.253906 8.867188 -11.128906 9.234375 -10.984375 C 9.597656 -10.847656 9.957031 -10.707031 10.3125 -10.5625 C 10.8125 -10.5625 11.210938 -10.429688 11.515625 -10.171875 C 11.828125 -9.910156 12.050781 -9.570312 12.1875 -9.15625 C 12.332031 -8.738281 12.4375 -8.300781 12.5 -7.84375 C 12.5625 -7.394531 12.601562 -6.960938 12.625 -6.546875 Z M 3.234375 -2.453125 L 3.203125 -2.4375 C 3.203125 -2.445312 3.210938 -2.453125 3.234375 -2.453125 Z M 8.609375 -6.359375 C 8.628906 -6.410156 8.644531 -6.460938 8.65625 -6.515625 C 8.675781 -6.578125 8.703125 -6.625 8.734375 -6.65625 C 8.648438 -6.6875 8.609375 -6.769531 8.609375 -6.90625 C 8.609375 -7.039062 8.597656 -7.15625 8.578125 -7.25 C 8.597656 -7.257812 8.609375 -7.296875 8.609375 -7.359375 C 8.609375 -7.421875 8.585938 -7.492188 8.546875 -7.578125 C 8.515625 -7.660156 8.488281 -7.71875 8.46875 -7.75 C 8.46875 -7.75 8.414062 -7.734375 8.3125 -7.703125 C 7.78125 -7.347656 7.265625 -6.9375 6.765625 -6.46875 C 6.265625 -6.007812 5.789062 -5.546875 5.34375 -5.078125 C 5.019531 -4.742188 4.65625 -4.347656 4.25 -3.890625 C 3.851562 -3.429688 3.503906 -2.953125 3.203125 -2.453125 C 2.898438 -1.960938 2.75 -1.492188 2.75 -1.046875 C 2.75 -0.921875 2.804688 -0.84375 2.921875 -0.8125 C 3.035156 -0.789062 3.148438 -0.78125 3.265625 -0.78125 C 3.773438 -0.757812 4.28125 -0.878906 4.78125 -1.140625 C 5.28125 -1.398438 5.742188 -1.660156 6.171875 -1.921875 C 6.316406 -2.015625 6.503906 -2.082031 6.734375 -2.125 C 6.960938 -2.164062 7.125 -2.273438 7.21875 -2.453125 L 7.828125 -3.578125 C 8.046875 -3.992188 8.191406 -4.460938 8.265625 -4.984375 C 8.347656 -5.515625 8.460938 -5.972656 8.609375 -6.359375 Z M 8.609375 -6.359375 "/></g></g></g><g fill="#000000" fill-opacity="1"><g transform="translate(51.979703, 22.299303)"><g><path d="M 12.5625 0 C 12.5625 0.0195312 12.5625 0.03125 12.5625 0.03125 C 12.5625 0.0390625 12.5625 0.0546875 12.5625 0.078125 L 12.5625 0.140625 C 12.539062 0.148438 12.523438 0.222656 12.515625 0.359375 C 12.515625 0.492188 12.457031 0.660156 12.34375 0.859375 C 12.238281 1.066406 12.023438 1.28125 11.703125 1.5 L 11.125 2.03125 L 10.453125 2.515625 C 10.347656 2.585938 10.25 2.628906 10.15625 2.640625 C 10.070312 2.660156 10.007812 2.671875 9.96875 2.671875 L 9.921875 2.703125 C 9.847656 2.722656 9.769531 2.757812 9.6875 2.8125 C 9.613281 2.863281 9.492188 2.90625 9.328125 2.9375 L 9.328125 2.96875 C 9.054688 3.019531 8.800781 3.09375 8.5625 3.1875 L 8.5 3.1875 C 8.394531 3.1875 8.296875 3.195312 8.203125 3.21875 C 8.117188 3.25 8.03125 3.265625 7.9375 3.265625 C 7.882812 3.265625 7.695312 3.195312 7.375 3.0625 C 7.050781 2.925781 6.707031 2.660156 6.34375 2.265625 C 5.976562 1.878906 5.695312 1.296875 5.5 0.515625 L 5.484375 0.484375 C 5.441406 0.265625 5.398438 0.03125 5.359375 -0.21875 C 5.316406 -0.476562 5.296875 -0.726562 5.296875 -0.96875 L 5.234375 -1.171875 L 5.234375 -1.46875 L 5.21875 -1.765625 L 5.21875 -3.203125 L 5.109375 -3.53125 L 5.296875 -3.953125 L 5.265625 -4.0625 L 5.34375 -4.359375 L 5.375 -5.03125 C 5.394531 -5.101562 5.40625 -5.171875 5.40625 -5.234375 C 5.40625 -5.304688 5.40625 -5.378906 5.40625 -5.453125 C 5.34375 -5.378906 5.285156 -5.304688 5.234375 -5.234375 C 5.179688 -5.171875 5.128906 -5.09375 5.078125 -5 L 4.390625 -3.65625 L 4.359375 -3.46875 L 4.03125 -2.859375 L 3.953125 -2.515625 L 3.828125 -2.328125 L 3.46875 -1.578125 L 3.125 -1.09375 L 2.90625 -0.9375 L 2.734375 -0.90625 C 2.734375 -0.90625 2.734375 -0.898438 2.734375 -0.890625 C 2.734375 -0.878906 2.734375 -0.875 2.734375 -0.875 L 2.75 -0.859375 C 2.71875 -0.816406 2.703125 -0.796875 2.703125 -0.796875 L 2.671875 -0.796875 C 2.460938 -0.484375 2.269531 -0.203125 2.09375 0.046875 C 1.925781 0.296875 1.753906 0.519531 1.578125 0.71875 L 1.546875 0.71875 C 1.210938 1.0625 0.835938 1.234375 0.421875 1.234375 C 0.242188 1.234375 0.109375 1.175781 0.015625 1.0625 C -0.0664062 0.957031 -0.109375 0.851562 -0.109375 0.75 C -0.109375 0.769531 -0.15625 0.710938 -0.25 0.578125 C -0.351562 0.441406 -0.40625 0.203125 -0.40625 -0.140625 C -0.40625 -0.472656 -0.34375 -0.832031 -0.21875 -1.21875 C -0.09375 -1.601562 0.03125 -2.03125 0.15625 -2.5 C 0.28125 -2.96875 0.34375 -3.5 0.34375 -4.09375 L 0.34375 -4.140625 C 0.4375 -4.535156 0.539062 -4.878906 0.65625 -5.171875 C 0.769531 -5.460938 0.863281 -5.753906 0.9375 -6.046875 L 0.90625 -6.84375 C 1 -7.09375 1.097656 -7.296875 1.203125 -7.453125 C 1.304688 -7.617188 1.382812 -7.753906 1.4375 -7.859375 L 1.4375 -7.890625 C 1.5625 -8.148438 1.703125 -8.421875 1.859375 -8.703125 C 2.023438 -8.992188 2.179688 -9.285156 2.328125 -9.578125 C 2.378906 -9.640625 2.445312 -9.753906 2.53125 -9.921875 C 2.625 -10.097656 2.753906 -10.253906 2.921875 -10.390625 C 3.097656 -10.535156 3.3125 -10.609375 3.5625 -10.609375 C 3.59375 -10.609375 3.65625 -10.601562 3.75 -10.59375 C 3.851562 -10.59375 3.953125 -10.488281 4.046875 -10.28125 C 4.148438 -10.070312 4.203125 -9.679688 4.203125 -9.109375 C 4.203125 -9.054688 4.195312 -9.003906 4.1875 -8.953125 C 4.175781 -8.898438 4.171875 -8.835938 4.171875 -8.765625 L 4.171875 -8.734375 C 4.097656 -8.429688 4.039062 -8.234375 4 -8.140625 C 3.96875 -8.046875 3.925781 -7.847656 3.875 -7.546875 C 3.84375 -7.347656 3.800781 -7.195312 3.75 -7.09375 C 3.707031 -7 3.664062 -6.90625 3.625 -6.8125 C 3.59375 -6.726562 3.5625 -6.570312 3.53125 -6.34375 L 3.5 -6.3125 C 3.5 -6.207031 3.503906 -6.113281 3.515625 -6.03125 C 3.523438 -5.945312 3.539062 -5.863281 3.5625 -5.78125 C 3.875 -6.1875 4.195312 -6.617188 4.53125 -7.078125 C 4.875 -7.546875 5.1875 -7.972656 5.46875 -8.359375 C 5.757812 -8.753906 5.992188 -9.039062 6.171875 -9.21875 C 6.421875 -9.4375 6.679688 -9.703125 6.953125 -10.015625 C 7.222656 -10.328125 7.507812 -10.609375 7.8125 -10.859375 C 8.125 -11.109375 8.460938 -11.234375 8.828125 -11.234375 C 9.054688 -11.234375 9.191406 -11.140625 9.234375 -10.953125 C 9.273438 -10.765625 9.296875 -10.671875 9.296875 -10.671875 C 9.285156 -10.679688 9.316406 -10.632812 9.390625 -10.53125 C 9.472656 -10.425781 9.515625 -10.25 9.515625 -10 L 9.484375 -9.96875 C 9.421875 -9.664062 9.375 -9.429688 9.34375 -9.265625 C 9.3125 -9.109375 9.28125 -8.953125 9.25 -8.796875 C 9.21875 -8.648438 9.164062 -8.410156 9.09375 -8.078125 L 9.0625 -8.078125 C 8.96875 -7.679688 8.84375 -7.253906 8.6875 -6.796875 C 8.539062 -6.347656 8.46875 -5.8125 8.46875 -5.1875 L 8.46875 -5.15625 C 8.46875 -5.019531 8.5 -4.851562 8.5625 -4.65625 C 8.625 -4.457031 8.691406 -4.25 8.765625 -4.03125 L 8.765625 -4.015625 C 8.835938 -3.722656 8.910156 -3.398438 8.984375 -3.046875 C 9.066406 -2.691406 9.144531 -2.363281 9.21875 -2.0625 L 9.21875 -2.03125 C 9.257812 -1.800781 9.285156 -1.59375 9.296875 -1.40625 C 9.316406 -1.21875 9.335938 -1.070312 9.359375 -0.96875 C 9.359375 -0.625 9.4375 -0.410156 9.59375 -0.328125 C 9.757812 -0.253906 9.847656 -0.191406 9.859375 -0.140625 C 9.972656 -0.171875 10.144531 -0.203125 10.375 -0.234375 C 10.601562 -0.273438 10.742188 -0.304688 10.796875 -0.328125 L 10.828125 -0.328125 C 10.847656 -0.335938 10.921875 -0.382812 11.046875 -0.46875 C 11.171875 -0.550781 11.320312 -0.59375 11.5 -0.59375 C 11.582031 -0.59375 11.660156 -0.578125 11.734375 -0.546875 C 11.804688 -0.523438 11.851562 -0.515625 11.875 -0.515625 L 12.03125 -0.59375 L 12.484375 -0.515625 C 12.515625 -0.441406 12.546875 -0.378906 12.578125 -0.328125 C 12.609375 -0.285156 12.625 -0.226562 12.625 -0.15625 C 12.582031 -0.0507812 12.5625 0 12.5625 0 Z M 12.5625 0 "/></g></g></g><g fill="#000000" fill-opacity="1"><g transform="translate(62.6165, 22.299303)"><g/></g></g><g fill="#000000" fill-opacity="1"><g transform="translate(70.60746, 22.299303)"><g><path d="M 15.046875 -14.5625 C 15.097656 -14.445312 15.125 -14.328125 15.125 -14.203125 C 15.125 -13.929688 15.019531 -13.738281 14.8125 -13.625 C 14.613281 -13.519531 14.363281 -13.445312 14.0625 -13.40625 C 13.757812 -13.375 13.46875 -13.347656 13.1875 -13.328125 C 12.914062 -13.316406 12.707031 -13.273438 12.5625 -13.203125 C 12.53125 -13.191406 12.320312 -13.113281 11.9375 -12.96875 C 11.550781 -12.820312 11.066406 -12.679688 10.484375 -12.546875 C 9.910156 -12.410156 9.3125 -12.34375 8.6875 -12.34375 C 8.507812 -12.34375 8.390625 -12.320312 8.328125 -12.28125 C 8.265625 -12.238281 8.179688 -12.179688 8.078125 -12.109375 C 7.359375 -11.554688 6.773438 -11.0625 6.328125 -10.625 C 5.890625 -10.1875 5.570312 -9.566406 5.375 -8.765625 C 5.625 -8.785156 5.878906 -8.800781 6.140625 -8.8125 C 6.410156 -8.832031 6.671875 -8.84375 6.921875 -8.84375 L 7.640625 -8.828125 L 8.078125 -8.84375 C 8.179688 -8.84375 8.3125 -8.820312 8.46875 -8.78125 C 8.632812 -8.75 8.796875 -8.734375 8.953125 -8.734375 C 9.128906 -8.734375 9.289062 -8.753906 9.4375 -8.796875 C 9.59375 -8.847656 9.753906 -8.875 9.921875 -8.875 C 10.117188 -8.875 10.300781 -8.820312 10.46875 -8.71875 C 10.632812 -8.625 10.71875 -8.445312 10.71875 -8.1875 C 10.71875 -7.8125 10.5625 -7.5 10.25 -7.25 C 9.9375 -7.007812 9.554688 -6.828125 9.109375 -6.703125 C 8.671875 -6.578125 8.25 -6.476562 7.84375 -6.40625 C 7.445312 -6.34375 7.148438 -6.289062 6.953125 -6.25 C 6.847656 -6.238281 6.664062 -6.226562 6.40625 -6.21875 C 6.144531 -6.207031 5.875 -6.175781 5.59375 -6.125 C 5.320312 -6.082031 5.097656 -5.984375 4.921875 -5.828125 C 4.773438 -5.703125 4.613281 -5.515625 4.4375 -5.265625 C 4.257812 -5.015625 4.171875 -4.847656 4.171875 -4.765625 C 4.171875 -4.210938 4.207031 -3.8125 4.28125 -3.5625 C 4.363281 -3.3125 4.460938 -3.148438 4.578125 -3.078125 C 4.703125 -3.003906 4.820312 -2.96875 4.9375 -2.96875 C 5.050781 -2.96875 5.148438 -2.929688 5.234375 -2.859375 C 5.328125 -2.773438 5.414062 -2.679688 5.5 -2.578125 C 5.59375 -2.484375 5.6875 -2.4375 5.78125 -2.4375 C 6.1875 -2.4375 6.609375 -2.488281 7.046875 -2.59375 C 7.492188 -2.695312 7.925781 -2.796875 8.34375 -2.890625 L 9.109375 -3.078125 C 9.359375 -3.078125 9.515625 -3.015625 9.578125 -2.890625 C 9.640625 -2.765625 9.691406 -2.578125 9.734375 -2.328125 C 9.710938 -2.328125 9.691406 -2.273438 9.671875 -2.171875 C 9.660156 -2.078125 9.65625 -2.015625 9.65625 -1.984375 C 9.40625 -1.015625 8.925781 -0.359375 8.21875 -0.015625 C 7.519531 0.316406 6.6875 0.484375 5.71875 0.484375 C 4.789062 0.484375 4.054688 0.304688 3.515625 -0.046875 C 2.972656 -0.410156 2.5625 -0.867188 2.28125 -1.421875 C 2.007812 -1.972656 1.816406 -2.535156 1.703125 -3.109375 C 1.585938 -3.691406 1.492188 -4.195312 1.421875 -4.625 C 1.421875 -5.15625 1.46875 -5.78125 1.5625 -6.5 C 1.664062 -7.226562 1.8125 -7.894531 2 -8.5 C 2.070312 -8.75 2.164062 -9.035156 2.28125 -9.359375 C 2.394531 -9.691406 2.5 -10.007812 2.59375 -10.3125 C 2.6875 -10.625 2.734375 -10.867188 2.734375 -11.046875 C 2.671875 -11.128906 2.597656 -11.242188 2.515625 -11.390625 C 2.441406 -11.546875 2.40625 -11.707031 2.40625 -11.875 C 2.40625 -11.925781 2.414062 -11.988281 2.4375 -12.0625 C 2.46875 -12.132812 2.492188 -12.203125 2.515625 -12.265625 C 2.515625 -12.265625 2.550781 -12.359375 2.625 -12.546875 C 2.707031 -12.734375 2.804688 -12.929688 2.921875 -13.140625 C 3.035156 -13.347656 3.15625 -13.484375 3.28125 -13.546875 C 3.425781 -13.617188 3.570312 -13.726562 3.71875 -13.875 C 3.863281 -14.019531 3.988281 -14.144531 4.09375 -14.25 C 4.09375 -14.28125 4.085938 -14.304688 4.078125 -14.328125 C 4.066406 -14.347656 4.0625 -14.367188 4.0625 -14.390625 C 4.0625 -14.703125 4.21875 -14.9375 4.53125 -15.09375 C 4.84375 -15.257812 5.140625 -15.34375 5.421875 -15.34375 C 5.566406 -15.320312 5.71875 -15.296875 5.875 -15.265625 C 6.039062 -15.242188 6.195312 -15.234375 6.34375 -15.234375 L 8.34375 -15.3125 L 11.390625 -15.234375 C 11.472656 -15.253906 11.550781 -15.269531 11.625 -15.28125 C 11.695312 -15.289062 11.753906 -15.296875 11.796875 -15.296875 C 11.972656 -15.296875 12.273438 -15.273438 12.703125 -15.234375 C 13.128906 -15.203125 13.566406 -15.132812 14.015625 -15.03125 C 14.472656 -14.9375 14.816406 -14.78125 15.046875 -14.5625 Z M 15.046875 -14.5625 "/></g></g></g><g fill="#000000" fill-opacity="1"><g transform="translate(83.649565, 22.299303)"><g><path d="M 11.703125 -17.34375 C 11.722656 -17.257812 11.738281 -17.160156 11.75 -17.046875 C 11.757812 -16.929688 11.765625 -16.8125 11.765625 -16.6875 C 11.765625 -16.1875 11.703125 -15.675781 11.578125 -15.15625 L 11.578125 -15.078125 C 11.578125 -14.828125 11.523438 -14.472656 11.421875 -14.015625 L 11.359375 -13.921875 C 10.398438 -12.191406 9.476562 -10.695312 8.59375 -9.4375 C 7.707031 -8.1875 6.863281 -7.144531 6.0625 -6.3125 C 5.882812 -5.9375 5.65625 -5.613281 5.375 -5.34375 C 5.101562 -5.082031 4.859375 -4.835938 4.640625 -4.609375 C 4.429688 -4.390625 4.300781 -4.164062 4.25 -3.9375 L 4.171875 -3.765625 C 4.015625 -3.554688 3.859375 -3.398438 3.703125 -3.296875 C 3.546875 -3.203125 3.421875 -3.097656 3.328125 -2.984375 C 3.234375 -2.867188 3.1875 -2.664062 3.1875 -2.375 C 3.1875 -2.300781 3.191406 -2.21875 3.203125 -2.125 C 3.222656 -2.039062 3.234375 -1.984375 3.234375 -1.953125 L 3.34375 -1.71875 C 3.519531 -1.519531 3.800781 -1.351562 4.1875 -1.21875 C 4.570312 -1.082031 4.945312 -1.015625 5.3125 -1.015625 C 5.875 -1.015625 6.320312 -1.140625 6.65625 -1.390625 L 6.953125 -1.46875 C 7.023438 -1.46875 7.113281 -1.453125 7.21875 -1.421875 C 7.4375 -1.503906 7.632812 -1.546875 7.8125 -1.546875 C 8.1875 -1.546875 8.460938 -1.441406 8.640625 -1.234375 C 8.816406 -1.035156 8.96875 -0.765625 9.09375 -0.421875 L 9.09375 -0.34375 C 9.09375 -0.3125 9.09375 -0.269531 9.09375 -0.21875 C 9.09375 -0.164062 9.070312 -0.09375 9.03125 0 L 9.03125 0.078125 L 8.390625 0.296875 C 8.316406 0.222656 8.222656 0.171875 8.109375 0.140625 C 7.992188 0.117188 7.882812 0.109375 7.78125 0.109375 C 7.550781 0.109375 7.1875 0.179688 6.6875 0.328125 C 6.1875 0.484375 5.660156 0.632812 5.109375 0.78125 C 4.554688 0.9375 4.070312 1.015625 3.65625 1.015625 L 3.1875 1.046875 L 2.890625 0.984375 C 2.335938 0.910156 1.832031 0.734375 1.375 0.453125 C 0.914062 0.179688 0.53125 -0.351562 0.21875 -1.15625 L -0.03125 -1.046875 C -0.03125 -1.046875 -0.0234375 -1.046875 -0.015625 -1.046875 C -0.00390625 -1.054688 -0.0078125 -1.0625 -0.03125 -1.0625 C -0.0390625 -1.0625 -0.25 -0.941406 -0.65625 -0.703125 C -1.070312 -0.460938 -1.492188 -0.265625 -1.921875 -0.109375 L -2.453125 -0.078125 C -2.671875 -0.0546875 -2.875 -0.113281 -3.0625 -0.25 C -3.25 -0.382812 -3.367188 -0.539062 -3.421875 -0.71875 L -3.234375 -1.203125 C -3.140625 -1.234375 -3.019531 -1.296875 -2.875 -1.390625 C -2.738281 -1.492188 -2.582031 -1.601562 -2.40625 -1.71875 C -2.125 -1.875 -1.796875 -2.035156 -1.421875 -2.203125 C -1.046875 -2.367188 -0.632812 -2.640625 -0.1875 -3.015625 C -0.09375 -3.085938 -0.0078125 -3.195312 0.0625 -3.34375 C 0.144531 -3.5 0.25 -3.660156 0.375 -3.828125 L 0.53125 -4.78125 L 0.640625 -5.140625 C 0.671875 -5.222656 0.695312 -5.300781 0.71875 -5.375 C 0.738281 -5.445312 0.757812 -5.519531 0.78125 -5.59375 C 0.8125 -5.644531 0.835938 -5.789062 0.859375 -6.03125 C 0.890625 -6.269531 1.039062 -6.679688 1.3125 -7.265625 L 1.390625 -7.546875 C 1.460938 -7.679688 1.550781 -7.882812 1.65625 -8.15625 L 1.953125 -8.921875 L 2.109375 -9.171875 C 2.179688 -9.578125 2.359375 -9.953125 2.640625 -10.296875 C 2.734375 -10.554688 2.859375 -10.863281 3.015625 -11.21875 C 3.179688 -11.582031 3.378906 -11.925781 3.609375 -12.25 L 4.09375 -13.265625 L 4.21875 -13.34375 L 4.328125 -13.640625 L 5.78125 -15.375 C 5.84375 -15.53125 5.925781 -15.65625 6.03125 -15.75 C 6.144531 -15.851562 6.265625 -15.96875 6.390625 -16.09375 L 6.65625 -16.171875 C 6.851562 -16.398438 7.039062 -16.625 7.21875 -16.84375 C 7.394531 -17.070312 7.570312 -17.273438 7.75 -17.453125 L 7.90625 -17.5625 C 8.269531 -17.707031 8.609375 -17.804688 8.921875 -17.859375 C 9.242188 -17.910156 9.550781 -17.9375 9.84375 -17.9375 C 10.125 -17.9375 10.421875 -17.914062 10.734375 -17.875 C 11.046875 -17.84375 11.316406 -17.757812 11.546875 -17.625 Z M 8.984375 -12.96875 C 9.066406 -13.175781 9.109375 -13.363281 9.109375 -13.53125 C 9.109375 -13.632812 9.078125 -13.773438 9.015625 -13.953125 C 8.953125 -14.128906 8.851562 -14.21875 8.71875 -14.21875 C 8.570312 -14.207031 8.328125 -13.984375 7.984375 -13.546875 C 7.648438 -13.117188 7.273438 -12.582031 6.859375 -11.9375 C 6.453125 -11.289062 6.054688 -10.617188 5.671875 -9.921875 C 5.296875 -9.222656 4.992188 -8.597656 4.765625 -8.046875 C 4.648438 -7.765625 4.503906 -7.457031 4.328125 -7.125 C 4.148438 -6.789062 3.992188 -6.484375 3.859375 -6.203125 C 3.722656 -5.921875 3.65625 -5.695312 3.65625 -5.53125 C 3.75 -5.570312 3.832031 -5.628906 3.90625 -5.703125 C 3.988281 -5.785156 4.054688 -5.851562 4.109375 -5.90625 L 6.609375 -9.25 C 7.046875 -9.851562 7.375 -10.296875 7.59375 -10.578125 C 7.820312 -10.867188 8 -11.113281 8.125 -11.3125 C 8.25 -11.507812 8.363281 -11.773438 8.46875 -12.109375 C 8.59375 -12.328125 8.671875 -12.453125 8.703125 -12.484375 C 8.742188 -12.515625 8.773438 -12.546875 8.796875 -12.578125 C 8.828125 -12.617188 8.890625 -12.75 8.984375 -12.96875 Z M 8.984375 -12.96875 "/></g></g></g><g fill="#000000" fill-opacity="1"><g transform="translate(92.148316, 22.299303)"><g><path d="M 11.703125 -17.34375 C 11.722656 -17.257812 11.738281 -17.160156 11.75 -17.046875 C 11.757812 -16.929688 11.765625 -16.8125 11.765625 -16.6875 C 11.765625 -16.1875 11.703125 -15.675781 11.578125 -15.15625 L 11.578125 -15.078125 C 11.578125 -14.828125 11.523438 -14.472656 11.421875 -14.015625 L 11.359375 -13.921875 C 10.398438 -12.191406 9.476562 -10.695312 8.59375 -9.4375 C 7.707031 -8.1875 6.863281 -7.144531 6.0625 -6.3125 C 5.882812 -5.9375 5.65625 -5.613281 5.375 -5.34375 C 5.101562 -5.082031 4.859375 -4.835938 4.640625 -4.609375 C 4.429688 -4.390625 4.300781 -4.164062 4.25 -3.9375 L 4.171875 -3.765625 C 4.015625 -3.554688 3.859375 -3.398438 3.703125 -3.296875 C 3.546875 -3.203125 3.421875 -3.097656 3.328125 -2.984375 C 3.234375 -2.867188 3.1875 -2.664062 3.1875 -2.375 C 3.1875 -2.300781 3.191406 -2.21875 3.203125 -2.125 C 3.222656 -2.039062 3.234375 -1.984375 3.234375 -1.953125 L 3.34375 -1.71875 C 3.519531 -1.519531 3.800781 -1.351562 4.1875 -1.21875 C 4.570312 -1.082031 4.945312 -1.015625 5.3125 -1.015625 C 5.875 -1.015625 6.320312 -1.140625 6.65625 -1.390625 L 6.953125 -1.46875 C 7.023438 -1.46875 7.113281 -1.453125 7.21875 -1.421875 C 7.4375 -1.503906 7.632812 -1.546875 7.8125 -1.546875 C 8.1875 -1.546875 8.460938 -1.441406 8.640625 -1.234375 C 8.816406 -1.035156 8.96875 -0.765625 9.09375 -0.421875 L 9.09375 -0.34375 C 9.09375 -0.3125 9.09375 -0.269531 9.09375 -0.21875 C 9.09375 -0.164062 9.070312 -0.09375 9.03125 0 L 9.03125 0.078125 L 8.390625 0.296875 C 8.316406 0.222656 8.222656 0.171875 8.109375 0.140625 C 7.992188 0.117188 7.882812 0.109375 7.78125 0.109375 C 7.550781 0.109375 7.1875 0.179688 6.6875 0.328125 C 6.1875 0.484375 5.660156 0.632812 5.109375 0.78125 C 4.554688 0.9375 4.070312 1.015625 3.65625 1.015625 L 3.1875 1.046875 L 2.890625 0.984375 C 2.335938 0.910156 1.832031 0.734375 1.375 0.453125 C 0.914062 0.179688 0.53125 -0.351562 0.21875 -1.15625 L -0.03125 -1.046875 C -0.03125 -1.046875 -0.0234375 -1.046875 -0.015625 -1.046875 C -0.00390625 -1.054688 -0.0078125 -1.0625 -0.03125 -1.0625 C -0.0390625 -1.0625 -0.25 -0.941406 -0.65625 -0.703125 C -1.070312 -0.460938 -1.492188 -0.265625 -1.921875 -0.109375 L -2.453125 -0.078125 C -2.671875 -0.0546875 -2.875 -0.113281 -3.0625 -0.25 C -3.25 -0.382812 -3.367188 -0.539062 -3.421875 -0.71875 L -3.234375 -1.203125 C -3.140625 -1.234375 -3.019531 -1.296875 -2.875 -1.390625 C -2.738281 -1.492188 -2.582031 -1.601562 -2.40625 -1.71875 C -2.125 -1.875 -1.796875 -2.035156 -1.421875 -2.203125 C -1.046875 -2.367188 -0.632812 -2.640625 -0.1875 -3.015625 C -0.09375 -3.085938 -0.0078125 -3.195312 0.0625 -3.34375 C 0.144531 -3.5 0.25 -3.660156 0.375 -3.828125 L 0.53125 -4.78125 L 0.640625 -5.140625 C 0.671875 -5.222656 0.695312 -5.300781 0.71875 -5.375 C 0.738281 -5.445312 0.757812 -5.519531 0.78125 -5.59375 C 0.8125 -5.644531 0.835938 -5.789062 0.859375 -6.03125 C 0.890625 -6.269531 1.039062 -6.679688 1.3125 -7.265625 L 1.390625 -7.546875 C 1.460938 -7.679688 1.550781 -7.882812 1.65625 -8.15625 L 1.953125 -8.921875 L 2.109375 -9.171875 C 2.179688 -9.578125 2.359375 -9.953125 2.640625 -10.296875 C 2.734375 -10.554688 2.859375 -10.863281 3.015625 -11.21875 C 3.179688 -11.582031 3.378906 -11.925781 3.609375 -12.25 L 4.09375 -13.265625 L 4.21875 -13.34375 L 4.328125 -13.640625 L 5.78125 -15.375 C 5.84375 -15.53125 5.925781 -15.65625 6.03125 -15.75 C 6.144531 -15.851562 6.265625 -15.96875 6.390625 -16.09375 L 6.65625 -16.171875 C 6.851562 -16.398438 7.039062 -16.625 7.21875 -16.84375 C 7.394531 -17.070312 7.570312 -17.273438 7.75 -17.453125 L 7.90625 -17.5625 C 8.269531 -17.707031 8.609375 -17.804688 8.921875 -17.859375 C 9.242188 -17.910156 9.550781 -17.9375 9.84375 -17.9375 C 10.125 -17.9375 10.421875 -17.914062 10.734375 -17.875 C 11.046875 -17.84375 11.316406 -17.757812 11.546875 -17.625 Z M 8.984375 -12.96875 C 9.066406 -13.175781 9.109375 -13.363281 9.109375 -13.53125 C 9.109375 -13.632812 9.078125 -13.773438 9.015625 -13.953125 C 8.953125 -14.128906 8.851562 -14.21875 8.71875 -14.21875 C 8.570312 -14.207031 8.328125 -13.984375 7.984375 -13.546875 C 7.648438 -13.117188 7.273438 -12.582031 6.859375 -11.9375 C 6.453125 -11.289062 6.054688 -10.617188 5.671875 -9.921875 C 5.296875 -9.222656 4.992188 -8.597656 4.765625 -8.046875 C 4.648438 -7.765625 4.503906 -7.457031 4.328125 -7.125 C 4.148438 -6.789062 3.992188 -6.484375 3.859375 -6.203125 C 3.722656 -5.921875 3.65625 -5.695312 3.65625 -5.53125 C 3.75 -5.570312 3.832031 -5.628906 3.90625 -5.703125 C 3.988281 -5.785156 4.054688 -5.851562 4.109375 -5.90625 L 6.609375 -9.25 C 7.046875 -9.851562 7.375 -10.296875 7.59375 -10.578125 C 7.820312 -10.867188 8 -11.113281 8.125 -11.3125 C 8.25 -11.507812 8.363281 -11.773438 8.46875 -12.109375 C 8.59375 -12.328125 8.671875 -12.453125 8.703125 -12.484375 C 8.742188 -12.515625 8.773438 -12.546875 8.796875 -12.578125 C 8.828125 -12.617188 8.890625 -12.75 8.984375 -12.96875 Z M 8.984375 -12.96875 "/></g></g></g><g fill="#000000" fill-opacity="1"><g transform="translate(100.647068, 22.299303)"><g><path d="M 10.03125 -11.46875 C 10.113281 -11.363281 10.203125 -11.273438 10.296875 -11.203125 C 10.398438 -11.128906 10.453125 -11.003906 10.453125 -10.828125 C 10.453125 -10.234375 10.335938 -9.726562 10.109375 -9.3125 C 9.890625 -8.894531 9.617188 -8.515625 9.296875 -8.171875 C 8.984375 -7.835938 8.660156 -7.515625 8.328125 -7.203125 C 7.992188 -6.890625 7.71875 -6.550781 7.5 -6.1875 C 7.28125 -5.820312 7.171875 -5.398438 7.171875 -4.921875 L 7.1875 -4.734375 C 7.300781 -4.015625 7.445312 -3.300781 7.625 -2.59375 C 7.800781 -1.882812 7.925781 -1.179688 8 -0.484375 C 8 -0.484375 7.925781 -0.332031 7.78125 -0.03125 C 7.632812 0.269531 7.445312 0.617188 7.21875 1.015625 C 6.988281 1.410156 6.722656 1.757812 6.421875 2.0625 C 6.128906 2.363281 5.832031 2.515625 5.53125 2.515625 C 5.070312 2.515625 4.617188 2.5 4.171875 2.46875 C 3.722656 2.445312 3.269531 2.375 2.8125 2.25 C 2.644531 2.207031 2.488281 2.117188 2.34375 1.984375 C 2.207031 1.859375 2.066406 1.75 1.921875 1.65625 C 1.796875 1.582031 1.675781 1.507812 1.5625 1.4375 C 1.445312 1.375 1.335938 1.296875 1.234375 1.203125 C 1.054688 1.054688 0.890625 0.851562 0.734375 0.59375 C 0.585938 0.34375 0.457031 0.113281 0.34375 -0.09375 C 0.238281 -0.3125 0.148438 -0.421875 0.078125 -0.421875 C 0.0546875 -0.421875 0.0351562 -0.414062 0.015625 -0.40625 C 0.00390625 -0.40625 -0.015625 -0.394531 -0.046875 -0.375 C -0.296875 -0.195312 -0.59375 0.0390625 -0.9375 0.34375 C -1.289062 0.644531 -1.640625 0.910156 -1.984375 1.140625 C -2.335938 1.378906 -2.644531 1.5 -2.90625 1.5 C -2.945312 1.5 -3.035156 1.410156 -3.171875 1.234375 C -3.316406 1.066406 -3.390625 0.976562 -3.390625 0.96875 C -3.390625 0.90625 -3.367188 0.828125 -3.328125 0.734375 C -3.285156 0.640625 -3.253906 0.570312 -3.234375 0.53125 C -2.960938 -0.164062 -2.570312 -0.695312 -2.0625 -1.0625 C -1.5625 -1.425781 -1.015625 -1.742188 -0.421875 -2.015625 C 0.160156 -2.296875 0.703125 -2.625 1.203125 -3 C 1.554688 -3.28125 1.925781 -3.550781 2.3125 -3.8125 C 2.695312 -4.082031 3.039062 -4.398438 3.34375 -4.765625 C 3.59375 -5.046875 3.753906 -5.28125 3.828125 -5.46875 C 3.910156 -5.65625 3.957031 -5.847656 3.96875 -6.046875 C 3.976562 -6.253906 4 -6.53125 4.03125 -6.875 C 4.050781 -7.320312 4.144531 -7.75 4.3125 -8.15625 C 4.488281 -8.5625 4.664062 -8.972656 4.84375 -9.390625 C 5.019531 -9.796875 5.15625 -10.21875 5.25 -10.65625 C 5.351562 -11.101562 5.472656 -11.453125 5.609375 -11.703125 C 5.628906 -11.722656 5.738281 -11.832031 5.9375 -12.03125 C 6.132812 -12.238281 6.359375 -12.445312 6.609375 -12.65625 C 6.867188 -12.863281 7.097656 -12.96875 7.296875 -12.96875 C 7.398438 -12.96875 7.488281 -12.941406 7.5625 -12.890625 C 7.851562 -12.742188 8.128906 -12.554688 8.390625 -12.328125 C 8.660156 -12.097656 8.929688 -11.894531 9.203125 -11.71875 C 9.484375 -11.550781 9.757812 -11.46875 10.03125 -11.46875 Z M 5.109375 -0.71875 L 5.109375 -1.546875 C 5.109375 -2.023438 5.03125 -2.492188 4.875 -2.953125 C 4.726562 -3.410156 4.566406 -3.867188 4.390625 -4.328125 L 0.78125 -1.546875 C 0.863281 -1.472656 0.957031 -1.410156 1.0625 -1.359375 C 1.175781 -1.304688 1.300781 -1.28125 1.4375 -1.28125 C 1.550781 -1.28125 1.65625 -1.304688 1.75 -1.359375 C 1.84375 -1.410156 1.953125 -1.4375 2.078125 -1.4375 C 2.191406 -1.4375 2.289062 -1.375 2.375 -1.25 C 2.46875 -1.125 2.554688 -1.0625 2.640625 -1.0625 C 2.679688 -1.0625 2.726562 -1.070312 2.78125 -1.09375 C 2.832031 -1.113281 2.882812 -1.125 2.9375 -1.125 C 3.238281 -1.125 3.554688 -1.039062 3.890625 -0.875 C 4.222656 -0.71875 4.515625 -0.640625 4.765625 -0.640625 C 4.816406 -0.640625 4.867188 -0.648438 4.921875 -0.671875 C 4.972656 -0.703125 5.035156 -0.71875 5.109375 -0.71875 Z M 8 -0.453125 L 8 -0.484375 Z M 8 -0.453125 "/></g></g></g><g fill="#000000" fill-opacity="1"><g transform="translate(109.680337, 22.299303)"><g><path d="M 16.46875 -16.0625 L 16.8125 -15.5625 L 16.84375 -15.5 C 16.84375 -15.34375 16.804688 -15.195312 16.734375 -15.0625 C 16.660156 -14.925781 16.625 -14.769531 16.625 -14.59375 C 16.625 -14.332031 16.535156 -14.09375 16.359375 -13.875 C 16.179688 -13.65625 16.066406 -13.429688 16.015625 -13.203125 C 15.972656 -13.003906 15.878906 -12.738281 15.734375 -12.40625 C 15.597656 -12.082031 15.445312 -11.734375 15.28125 -11.359375 C 15.113281 -10.984375 14.96875 -10.632812 14.84375 -10.3125 C 14.71875 -10 14.65625 -9.753906 14.65625 -9.578125 L 14.65625 -9.390625 C 14.65625 -9.046875 14.5625 -8.664062 14.375 -8.25 C 14.1875 -7.832031 14.035156 -7.4375 13.921875 -7.0625 C 13.835938 -6.738281 13.707031 -6.425781 13.53125 -6.125 C 13.363281 -5.832031 13.28125 -5.492188 13.28125 -5.109375 C 13.28125 -5.066406 13.285156 -5.03125 13.296875 -5 C 13.304688 -4.976562 13.3125 -4.960938 13.3125 -4.953125 C 13.289062 -4.828125 13.265625 -4.710938 13.234375 -4.609375 C 13.203125 -4.515625 13.164062 -4.410156 13.125 -4.296875 C 12.976562 -4.015625 12.804688 -3.582031 12.609375 -3 C 12.421875 -2.425781 12.175781 -1.832031 11.875 -1.21875 C 11.582031 -0.601562 11.234375 -0.0820312 10.828125 0.34375 C 10.421875 0.769531 9.921875 0.984375 9.328125 0.984375 C 9.003906 0.984375 8.769531 0.945312 8.625 0.875 C 8.488281 0.8125 8.3125 0.722656 8.09375 0.609375 C 7.988281 0.554688 7.828125 0.394531 7.609375 0.125 C 7.398438 -0.132812 7.179688 -0.457031 6.953125 -0.84375 C 6.734375 -1.238281 6.546875 -1.660156 6.390625 -2.109375 C 6.234375 -2.554688 6.15625 -2.984375 6.15625 -3.390625 L 6.171875 -4.015625 L 6.171875 -5.3125 C 6.085938 -5.101562 6.046875 -4.925781 6.046875 -4.78125 L 6.046875 -4.546875 C 6.046875 -4.347656 5.984375 -4.109375 5.859375 -3.828125 C 5.742188 -3.554688 5.6875 -3.332031 5.6875 -3.15625 L 5.6875 -2.9375 C 5.6875 -2.613281 5.640625 -2.289062 5.546875 -1.96875 C 5.460938 -1.65625 5.378906 -1.347656 5.296875 -1.046875 C 4.972656 -0.0664062 4.695312 0.585938 4.46875 0.921875 C 4.25 1.253906 3.898438 1.421875 3.421875 1.421875 C 3.265625 1.421875 3.101562 1.359375 2.9375 1.234375 C 2.78125 1.109375 2.640625 1 2.515625 0.90625 C 1.941406 0.445312 1.578125 -0.132812 1.421875 -0.84375 C 1.273438 -1.5625 1.203125 -2.257812 1.203125 -2.9375 L 1.203125 -7.296875 C 1.203125 -7.441406 1.203125 -7.582031 1.203125 -7.71875 C 1.203125 -7.863281 1.210938 -8.007812 1.234375 -8.15625 L 1.359375 -9.765625 C 1.398438 -10.023438 1.453125 -10.3125 1.515625 -10.625 C 1.585938 -10.9375 1.722656 -11.203125 1.921875 -11.421875 C 2.117188 -11.648438 2.394531 -11.765625 2.75 -11.765625 C 2.976562 -11.765625 3.203125 -11.664062 3.421875 -11.46875 C 3.640625 -11.269531 3.820312 -11.023438 3.96875 -10.734375 C 4.125 -10.453125 4.203125 -10.179688 4.203125 -9.921875 L 4.140625 -7.96875 C 4.140625 -7.789062 4.144531 -7.613281 4.15625 -7.4375 C 4.164062 -7.269531 4.179688 -7.097656 4.203125 -6.921875 C 4.378906 -7.421875 4.59375 -7.898438 4.84375 -8.359375 C 5.09375 -8.828125 5.421875 -9.210938 5.828125 -9.515625 C 6.234375 -9.816406 6.75 -9.96875 7.375 -9.96875 C 7.84375 -9.96875 8.207031 -9.820312 8.46875 -9.53125 C 8.738281 -9.238281 8.941406 -8.867188 9.078125 -8.421875 C 9.210938 -7.972656 9.300781 -7.515625 9.34375 -7.046875 C 9.382812 -6.585938 9.40625 -6.191406 9.40625 -5.859375 L 9.40625 -4.0625 L 9.390625 -3.46875 L 9.40625 -3.1875 C 9.78125 -3.988281 10.160156 -4.773438 10.546875 -5.546875 C 10.929688 -6.316406 11.300781 -7.101562 11.65625 -7.90625 C 12.007812 -8.707031 12.359375 -9.476562 12.703125 -10.21875 C 13.054688 -10.957031 13.460938 -11.703125 13.921875 -12.453125 C 14.117188 -12.773438 14.289062 -13.097656 14.4375 -13.421875 C 14.582031 -13.753906 14.796875 -14.09375 15.078125 -14.4375 C 15.078125 -14.457031 15.144531 -14.585938 15.28125 -14.828125 C 15.414062 -15.066406 15.585938 -15.316406 15.796875 -15.578125 C 16.015625 -15.847656 16.238281 -16.007812 16.46875 -16.0625 Z M 16.46875 -16.0625 "/></g></g></g><g fill="#000000" fill-opacity="1"><g transform="translate(123.898377, 22.299303)"><g><path d="M 12.625 -6.546875 C 12.625 -6.265625 12.613281 -5.988281 12.59375 -5.71875 C 12.570312 -5.445312 12.535156 -5.179688 12.484375 -4.921875 C 12.429688 -4.671875 12.347656 -4.425781 12.234375 -4.1875 C 12.128906 -3.957031 12.046875 -3.71875 11.984375 -3.46875 C 11.765625 -2.601562 11.363281 -1.878906 10.78125 -1.296875 C 10.207031 -0.710938 9.519531 -0.191406 8.71875 0.265625 C 8.300781 0.515625 7.878906 0.769531 7.453125 1.03125 C 7.023438 1.300781 6.617188 1.492188 6.234375 1.609375 C 5.984375 1.679688 5.796875 1.734375 5.671875 1.765625 C 5.554688 1.796875 5.40625 1.882812 5.21875 2.03125 C 4.914062 2.25 4.585938 2.398438 4.234375 2.484375 C 3.890625 2.578125 3.507812 2.625 3.09375 2.625 C 2.738281 2.625 2.445312 2.550781 2.21875 2.40625 C 2 2.257812 1.800781 2.101562 1.625 1.9375 C 1.445312 1.769531 1.234375 1.648438 0.984375 1.578125 C 0.671875 1.472656 0.441406 1.300781 0.296875 1.0625 C 0.148438 0.832031 0.0507812 0.570312 0 0.28125 C -0.0507812 0 -0.113281 -0.269531 -0.1875 -0.53125 C -0.1875 -0.5 -0.175781 -0.472656 -0.15625 -0.453125 L -0.1875 -0.78125 L -0.1875 -0.875 C -0.1875 -0.945312 -0.175781 -0.984375 -0.15625 -0.984375 L -0.140625 -0.984375 C -0.222656 -1.128906 -0.265625 -1.300781 -0.265625 -1.5 C -0.265625 -1.695312 -0.242188 -1.953125 -0.203125 -2.265625 C -0.171875 -2.585938 -0.09375 -2.832031 0.03125 -3 C 0.0820312 -3.082031 0.175781 -3.164062 0.3125 -3.25 C 0.457031 -3.332031 0.53125 -3.40625 0.53125 -3.46875 C 0.53125 -3.539062 0.515625 -3.625 0.484375 -3.71875 C 0.460938 -3.820312 0.441406 -3.898438 0.421875 -3.953125 C 0.421875 -4.148438 0.5 -4.320312 0.65625 -4.46875 C 0.820312 -4.625 0.96875 -4.785156 1.09375 -4.953125 C 1.3125 -5.253906 1.515625 -5.578125 1.703125 -5.921875 C 1.890625 -6.265625 2.109375 -6.585938 2.359375 -6.890625 C 2.660156 -7.253906 2.96875 -7.597656 3.28125 -7.921875 C 3.601562 -8.253906 3.925781 -8.582031 4.25 -8.90625 C 4.46875 -9.113281 4.722656 -9.375 5.015625 -9.6875 C 5.304688 -10 5.609375 -10.28125 5.921875 -10.53125 C 6.234375 -10.78125 6.503906 -10.90625 6.734375 -10.90625 C 6.785156 -10.90625 6.835938 -10.894531 6.890625 -10.875 C 6.953125 -10.863281 7.015625 -10.859375 7.078125 -10.859375 C 7.203125 -10.859375 7.296875 -10.914062 7.359375 -11.03125 C 7.421875 -11.144531 7.492188 -11.253906 7.578125 -11.359375 C 7.671875 -11.460938 7.8125 -11.515625 8 -11.515625 C 8 -11.515625 8.113281 -11.460938 8.34375 -11.359375 C 8.570312 -11.253906 8.867188 -11.128906 9.234375 -10.984375 C 9.597656 -10.847656 9.957031 -10.707031 10.3125 -10.5625 C 10.8125 -10.5625 11.210938 -10.429688 11.515625 -10.171875 C 11.828125 -9.910156 12.050781 -9.570312 12.1875 -9.15625 C 12.332031 -8.738281 12.4375 -8.300781 12.5 -7.84375 C 12.5625 -7.394531 12.601562 -6.960938 12.625 -6.546875 Z M 3.234375 -2.453125 L 3.203125 -2.4375 C 3.203125 -2.445312 3.210938 -2.453125 3.234375 -2.453125 Z M 8.609375 -6.359375 C 8.628906 -6.410156 8.644531 -6.460938 8.65625 -6.515625 C 8.675781 -6.578125 8.703125 -6.625 8.734375 -6.65625 C 8.648438 -6.6875 8.609375 -6.769531 8.609375 -6.90625 C 8.609375 -7.039062 8.597656 -7.15625 8.578125 -7.25 C 8.597656 -7.257812 8.609375 -7.296875 8.609375 -7.359375 C 8.609375 -7.421875 8.585938 -7.492188 8.546875 -7.578125 C 8.515625 -7.660156 8.488281 -7.71875 8.46875 -7.75 C 8.46875 -7.75 8.414062 -7.734375 8.3125 -7.703125 C 7.78125 -7.347656 7.265625 -6.9375 6.765625 -6.46875 C 6.265625 -6.007812 5.789062 -5.546875 5.34375 -5.078125 C 5.019531 -4.742188 4.65625 -4.347656 4.25 -3.890625 C 3.851562 -3.429688 3.503906 -2.953125 3.203125 -2.453125 C 2.898438 -1.960938 2.75 -1.492188 2.75 -1.046875 C 2.75 -0.921875 2.804688 -0.84375 2.921875 -0.8125 C 3.035156 -0.789062 3.148438 -0.78125 3.265625 -0.78125 C 3.773438 -0.757812 4.28125 -0.878906 4.78125 -1.140625 C 5.28125 -1.398438 5.742188 -1.660156 6.171875 -1.921875 C 6.316406 -2.015625 6.503906 -2.082031 6.734375 -2.125 C 6.960938 -2.164062 7.125 -2.273438 7.21875 -2.453125 L 7.828125 -3.578125 C 8.046875 -3.992188 8.191406 -4.460938 8.265625 -4.984375 C 8.347656 -5.515625 8.460938 -5.972656 8.609375 -6.359375 Z M 8.609375 -6.359375 "/></g></g></g><g fill="#000000" fill-opacity="1"><g transform="translate(136.512878, 22.299303)"><g><path d="M 10.59375 -10.421875 C 10.65625 -10.296875 10.679688 -10.179688 10.671875 -10.078125 C 10.671875 -9.984375 10.671875 -9.921875 10.671875 -9.890625 L 10.671875 -9.78125 C 10.617188 -9.601562 10.5 -9.476562 10.3125 -9.40625 C 9.875 -9.175781 9.5625 -9.03125 9.375 -8.96875 C 9.1875 -8.90625 9.050781 -8.863281 8.96875 -8.84375 C 8.882812 -8.832031 8.785156 -8.796875 8.671875 -8.734375 C 8.554688 -8.671875 8.335938 -8.53125 8.015625 -8.3125 C 7.816406 -8.238281 7.425781 -8.03125 6.84375 -7.6875 C 6.269531 -7.34375 5.582031 -6.625 4.78125 -5.53125 L 4.765625 -5.5 C 4.617188 -5.34375 4.492188 -5.125 4.390625 -4.84375 L 4.359375 -4.8125 C 4.234375 -4.59375 4.144531 -4.304688 4.09375 -3.953125 L 4.0625 -3.9375 C 4.039062 -3.875 4.023438 -3.828125 4.015625 -3.796875 C 4.015625 -3.773438 3.992188 -3.75 3.953125 -3.71875 C 3.972656 -3.769531 3.957031 -3.6875 3.90625 -3.46875 C 3.863281 -3.257812 3.800781 -2.988281 3.71875 -2.65625 C 3.644531 -2.332031 3.554688 -1.992188 3.453125 -1.640625 C 3.359375 -1.296875 3.257812 -1 3.15625 -0.75 L 3.125 -0.6875 C 3.125 -0.675781 3.125 -0.65625 3.125 -0.625 C 3.125 -0.601562 3.125 -0.570312 3.125 -0.53125 L 3.09375 -0.40625 L 3.15625 -0.265625 L 3.15625 -0.078125 C 3.132812 0.0976562 3.097656 0.28125 3.046875 0.46875 C 2.992188 0.65625 2.921875 0.863281 2.828125 1.09375 L 2.75 1.25 C 2.75 1.269531 2.71875 1.332031 2.65625 1.4375 C 2.59375 1.550781 2.484375 1.609375 2.328125 1.609375 C 2.253906 1.609375 2.191406 1.59375 2.140625 1.5625 C 2.085938 1.539062 2.039062 1.519531 2 1.5 C 2 1.550781 1.992188 1.59375 1.984375 1.625 C 1.960938 1.644531 1.921875 1.722656 1.859375 1.859375 C 1.796875 2.003906 1.59375 2.078125 1.25 2.078125 C 1.125 2.097656 1.023438 2.0625 0.953125 1.96875 C 0.890625 1.882812 0.785156 1.84375 0.640625 1.84375 C 0.515625 1.59375 0.453125 1.457031 0.453125 1.4375 C 0.453125 1.425781 0.410156 1.359375 0.328125 1.234375 L 0.296875 1.171875 C 0.273438 1.160156 0.242188 1.113281 0.203125 1.03125 C 0.171875 0.945312 0.117188 0.867188 0.046875 0.796875 C 0.046875 0.835938 0.03125 0.742188 0 0.515625 C -0.03125 0.296875 -0.078125 0.160156 -0.140625 0.109375 L -0.15625 0 L -0.265625 -0.328125 C -0.265625 -0.484375 -0.242188 -0.585938 -0.203125 -0.640625 C -0.171875 -0.691406 -0.15625 -0.738281 -0.15625 -0.78125 L -0.15625 -0.796875 L -0.140625 -1.15625 C 0.046875 -1.8125 0.207031 -2.421875 0.34375 -2.984375 C 0.488281 -3.546875 0.585938 -3.992188 0.640625 -4.328125 L 0.671875 -4.40625 C 0.648438 -4.425781 0.644531 -4.4375 0.65625 -4.4375 C 0.675781 -4.4375 0.6875 -4.5 0.6875 -4.625 L 0.796875 -4.96875 C 0.867188 -5.039062 0.914062 -5.113281 0.9375 -5.1875 C 0.96875 -5.269531 0.992188 -5.421875 1.015625 -5.640625 C 1.035156 -5.867188 1.070312 -6.222656 1.125 -6.703125 L 1.125 -6.765625 C 1.195312 -7.160156 1.265625 -7.625 1.328125 -8.15625 C 1.398438 -8.6875 1.660156 -9.175781 2.109375 -9.625 L 2.171875 -9.78125 C 2.253906 -9.90625 2.3125 -9.96875 2.34375 -9.96875 C 2.382812 -9.96875 2.429688 -9.992188 2.484375 -10.046875 C 2.535156 -10.097656 2.625 -10.257812 2.75 -10.53125 L 2.828125 -10.5625 C 2.941406 -10.664062 3.046875 -10.734375 3.140625 -10.765625 C 3.234375 -10.804688 3.316406 -10.828125 3.390625 -10.828125 C 3.429688 -10.828125 3.472656 -10.820312 3.515625 -10.8125 C 3.554688 -10.800781 3.585938 -10.796875 3.609375 -10.796875 C 3.640625 -10.796875 3.671875 -10.800781 3.703125 -10.8125 C 3.734375 -10.820312 3.753906 -10.828125 3.765625 -10.828125 C 3.910156 -10.828125 4.078125 -10.742188 4.265625 -10.578125 C 4.453125 -10.421875 4.570312 -10.328125 4.625 -10.296875 L 4.953125 -9.9375 C 5.035156 -9.875 5.109375 -9.804688 5.171875 -9.734375 C 5.234375 -9.660156 5.273438 -9.625 5.296875 -9.625 L 5.3125 -9.59375 C 5.3125 -9.59375 5.316406 -9.585938 5.328125 -9.578125 C 5.335938 -9.578125 5.34375 -9.578125 5.34375 -9.578125 C 5.394531 -9.578125 5.585938 -9.65625 5.921875 -9.8125 C 6.265625 -9.96875 6.582031 -10.128906 6.875 -10.296875 L 6.890625 -10.3125 C 7.941406 -10.800781 8.765625 -11.046875 9.359375 -11.046875 C 9.460938 -11.046875 9.539062 -11.035156 9.59375 -11.015625 C 9.5625 -11.046875 9.679688 -11.019531 9.953125 -10.9375 C 10.234375 -10.863281 10.4375 -10.703125 10.5625 -10.453125 Z M 10.59375 -10.421875 "/></g></g></g><g fill="#000000" fill-opacity="1"><g transform="translate(143.942607, 22.299303)"><g><path d="M 11.890625 -9.9375 C 11.859375 -9.820312 11.773438 -9.726562 11.640625 -9.65625 C 11.503906 -9.582031 11.382812 -9.519531 11.28125 -9.46875 C 11.300781 -9.425781 11.320312 -9.382812 11.34375 -9.34375 C 11.375 -9.3125 11.390625 -9.28125 11.390625 -9.25 C 11.390625 -9.070312 11.273438 -8.925781 11.046875 -8.8125 C 10.828125 -8.695312 10.59375 -8.59375 10.34375 -8.5 C 10.09375 -8.414062 9.90625 -8.335938 9.78125 -8.265625 C 9.519531 -7.890625 9.117188 -7.625 8.578125 -7.46875 C 8.046875 -7.320312 7.539062 -7.164062 7.0625 -7 C 6.882812 -6.925781 6.703125 -6.847656 6.515625 -6.765625 C 6.335938 -6.691406 6.160156 -6.609375 5.984375 -6.515625 C 5.785156 -6.023438 5.53125 -5.5 5.21875 -4.9375 C 4.914062 -4.382812 4.671875 -3.84375 4.484375 -3.3125 C 4.398438 -3.03125 4.25 -2.660156 4.03125 -2.203125 C 3.820312 -1.753906 3.628906 -1.3125 3.453125 -0.875 C 3.273438 -0.445312 3.1875 -0.109375 3.1875 0.140625 C 3.1875 0.273438 3.1875 0.425781 3.1875 0.59375 C 3.1875 0.769531 3.140625 0.921875 3.046875 1.046875 C 3.046875 1.023438 3.054688 1.003906 3.078125 0.984375 C 3.003906 1.054688 2.925781 1.210938 2.84375 1.453125 C 2.769531 1.691406 2.6875 1.945312 2.59375 2.21875 C 2.5 2.5 2.398438 2.738281 2.296875 2.9375 C 2.191406 3.132812 2.066406 3.234375 1.921875 3.234375 C 1.597656 3.234375 1.390625 3.125 1.296875 2.90625 C 1.203125 2.695312 1.15625 2.453125 1.15625 2.171875 C 1.15625 1.898438 1.15625 1.65625 1.15625 1.4375 C 1.15625 1.3125 1.164062 1.1875 1.1875 1.0625 C 1.21875 0.9375 1.234375 0.804688 1.234375 0.671875 C 1.234375 0.578125 1.207031 0.5 1.15625 0.4375 C 1.113281 0.375 1.09375 0.28125 1.09375 0.15625 C 1.09375 0.03125 1.109375 -0.0859375 1.140625 -0.203125 C 1.179688 -0.316406 1.203125 -0.425781 1.203125 -0.53125 C 1.203125 -0.601562 1.191406 -0.671875 1.171875 -0.734375 C 1.160156 -0.796875 1.15625 -0.84375 1.15625 -0.875 C 1.15625 -1.59375 1.25 -2.289062 1.4375 -2.96875 C 1.632812 -3.644531 1.863281 -4.296875 2.125 -4.921875 C 2.382812 -5.554688 2.601562 -6.160156 2.78125 -6.734375 C 2.75 -6.804688 2.703125 -6.867188 2.640625 -6.921875 C 2.609375 -6.972656 2.503906 -7.085938 2.328125 -7.265625 C 2.160156 -7.453125 1.972656 -7.648438 1.765625 -7.859375 C 1.566406 -8.078125 1.390625 -8.28125 1.234375 -8.46875 C 1.085938 -8.664062 1.015625 -8.800781 1.015625 -8.875 C 1.015625 -9.226562 1.125 -9.460938 1.34375 -9.578125 C 1.570312 -9.703125 1.800781 -9.765625 2.03125 -9.765625 C 2.257812 -9.765625 2.375 -9.753906 2.375 -9.734375 C 2.59375 -9.753906 2.800781 -9.742188 3 -9.703125 C 3.207031 -9.671875 3.425781 -9.65625 3.65625 -9.65625 C 3.820312 -9.65625 3.984375 -9.804688 4.140625 -10.109375 C 4.304688 -10.410156 4.457031 -10.78125 4.59375 -11.21875 C 4.738281 -11.664062 4.878906 -12.109375 5.015625 -12.546875 C 5.160156 -12.984375 5.304688 -13.347656 5.453125 -13.640625 C 5.609375 -13.890625 5.71875 -14.207031 5.78125 -14.59375 C 5.84375 -14.988281 5.925781 -15.335938 6.03125 -15.640625 C 6.144531 -15.941406 6.34375 -16.09375 6.625 -16.09375 C 6.75 -16.09375 6.867188 -16.050781 6.984375 -15.96875 C 7.109375 -15.894531 7.210938 -15.859375 7.296875 -15.859375 C 7.367188 -15.859375 7.4375 -15.863281 7.5 -15.875 C 7.5625 -15.894531 7.617188 -15.90625 7.671875 -15.90625 C 7.867188 -15.90625 8.09375 -15.863281 8.34375 -15.78125 C 8.601562 -15.707031 8.832031 -15.585938 9.03125 -15.421875 C 9.226562 -15.265625 9.328125 -15.078125 9.328125 -14.859375 C 9.328125 -14.847656 9.28125 -14.734375 9.1875 -14.515625 C 9.101562 -14.304688 9.003906 -14.066406 8.890625 -13.796875 C 8.773438 -13.523438 8.664062 -13.285156 8.5625 -13.078125 C 8.320312 -12.554688 8.113281 -12.03125 7.9375 -11.5 C 7.757812 -10.976562 7.566406 -10.457031 7.359375 -9.9375 C 7.460938 -9.925781 7.566406 -9.921875 7.671875 -9.921875 C 7.773438 -9.921875 7.882812 -9.921875 8 -9.921875 C 8.632812 -9.921875 9.257812 -10.015625 9.875 -10.203125 C 10.488281 -10.390625 11.007812 -10.484375 11.4375 -10.484375 C 11.53125 -10.484375 11.613281 -10.414062 11.6875 -10.28125 C 11.769531 -10.144531 11.835938 -10.03125 11.890625 -9.9375 Z M 11.890625 -9.9375 "/></g></g></g><g fill="#000000" fill-opacity="1"><g transform="translate(153.243128, 22.299303)"><g><path d="M 15.21875 -1.625 C 15.226562 -1.539062 15.238281 -1.457031 15.25 -1.375 C 15.257812 -1.289062 15.265625 -1.207031 15.265625 -1.125 C 15.265625 -0.5 15.117188 -0.0546875 14.828125 0.203125 C 14.535156 0.472656 14.175781 0.65625 13.75 0.75 C 13.332031 0.851562 12.9375 0.992188 12.5625 1.171875 C 12.457031 1.210938 12.351562 1.234375 12.25 1.234375 C 12.03125 1.234375 11.742188 1.171875 11.390625 1.046875 C 11.046875 0.921875 10.703125 0.738281 10.359375 0.5 C 10.015625 0.257812 9.71875 -0.0234375 9.46875 -0.359375 C 9.226562 -0.703125 9.109375 -1.09375 9.109375 -1.53125 L 9.203125 -2.0625 C 9.203125 -2.21875 9.191406 -2.390625 9.171875 -2.578125 C 9.148438 -2.765625 9.125 -2.945312 9.09375 -3.125 C 8.769531 -3.09375 8.550781 -2.925781 8.4375 -2.625 C 8.320312 -2.332031 8.203125 -2.054688 8.078125 -1.796875 C 7.597656 -0.722656 7.210938 0.0976562 6.921875 0.671875 C 6.640625 1.253906 6.398438 1.65625 6.203125 1.875 C 6.003906 2.101562 5.78125 2.21875 5.53125 2.21875 C 5.300781 2.21875 5.015625 2.082031 4.671875 1.8125 C 4.335938 1.550781 4.039062 1.257812 3.78125 0.9375 C 3.519531 0.613281 3.390625 0.363281 3.390625 0.1875 L 3.421875 -0.109375 C 3.421875 -0.191406 3.394531 -0.25 3.34375 -0.28125 C 3.300781 -0.320312 3.25 -0.363281 3.1875 -0.40625 C 3.09375 -0.457031 3.003906 -0.640625 2.921875 -0.953125 C 2.847656 -1.265625 2.785156 -1.609375 2.734375 -1.984375 C 2.691406 -2.359375 2.65625 -2.648438 2.625 -2.859375 C 2.507812 -2.785156 2.394531 -2.707031 2.28125 -2.625 C 2.164062 -2.550781 2.070312 -2.515625 2 -2.515625 L 1.890625 -2.546875 C 1.804688 -2.546875 1.734375 -2.460938 1.671875 -2.296875 C 1.609375 -2.140625 1.515625 -2.0625 1.390625 -2.0625 L 0.875 -2.03125 C 0.914062 -2.007812 0.945312 -1.988281 0.96875 -1.96875 C 1 -1.957031 1.03125 -1.953125 1.0625 -1.953125 C 0.882812 -1.953125 0.710938 -1.867188 0.546875 -1.703125 C 0.378906 -1.546875 0.207031 -1.382812 0.03125 -1.21875 C -0.144531 -1.050781 -0.359375 -0.96875 -0.609375 -0.96875 C -0.722656 -0.96875 -0.882812 -1.050781 -1.09375 -1.21875 C -1.3125 -1.382812 -1.421875 -1.578125 -1.421875 -1.796875 C -1.421875 -2.046875 -1.320312 -2.289062 -1.125 -2.53125 C -0.925781 -2.78125 -0.738281 -3 -0.5625 -3.1875 C 0.0625 -3.800781 0.742188 -4.390625 1.484375 -4.953125 C 2.222656 -5.515625 2.90625 -6.160156 3.53125 -6.890625 C 3.507812 -6.910156 3.5 -6.984375 3.5 -7.109375 C 3.5 -7.304688 3.550781 -7.492188 3.65625 -7.671875 C 3.769531 -7.847656 3.828125 -8.023438 3.828125 -8.203125 L 3.765625 -8.609375 C 3.765625 -8.691406 3.773438 -8.742188 3.796875 -8.765625 C 3.941406 -9.234375 4.0625 -9.707031 4.15625 -10.1875 C 4.25 -10.664062 4.394531 -11.140625 4.59375 -11.609375 C 4.6875 -11.816406 4.796875 -12.035156 4.921875 -12.265625 C 5.046875 -12.503906 5.109375 -12.71875 5.109375 -12.90625 C 5.085938 -13 5.066406 -13.09375 5.046875 -13.1875 C 5.035156 -13.289062 5.03125 -13.382812 5.03125 -13.46875 C 5.03125 -13.71875 5.113281 -14 5.28125 -14.3125 C 5.445312 -14.625 5.640625 -14.925781 5.859375 -15.21875 C 6.085938 -15.519531 6.28125 -15.773438 6.4375 -15.984375 C 6.4375 -16.453125 6.582031 -16.945312 6.875 -17.46875 C 7.175781 -18 7.476562 -18.519531 7.78125 -19.03125 C 7.863281 -19.226562 8.046875 -19.5 8.328125 -19.84375 C 8.617188 -20.195312 8.953125 -20.515625 9.328125 -20.796875 C 9.703125 -21.085938 10.078125 -21.234375 10.453125 -21.234375 C 10.597656 -21.234375 10.691406 -21.203125 10.734375 -21.140625 C 10.773438 -21.078125 10.820312 -21.046875 10.875 -21.046875 C 10.84375 -21.046875 10.925781 -21.078125 11.125 -21.140625 C 11.332031 -21.203125 11.484375 -21.238281 11.578125 -21.25 C 11.609375 -21.25 11.625 -21.242188 11.625 -21.234375 C 11.625 -21.210938 11.617188 -21.191406 11.609375 -21.171875 C 11.691406 -21.265625 11.789062 -21.367188 11.90625 -21.484375 C 12.019531 -21.597656 12.148438 -21.65625 12.296875 -21.65625 C 12.492188 -21.65625 12.722656 -21.546875 12.984375 -21.328125 C 13.253906 -21.117188 13.476562 -21.015625 13.65625 -21.015625 C 14 -21.015625 14.273438 -20.863281 14.484375 -20.5625 C 14.703125 -20.257812 14.867188 -19.914062 14.984375 -19.53125 C 15.097656 -19.144531 15.15625 -18.828125 15.15625 -18.578125 C 15.15625 -18.347656 15.050781 -18.046875 14.84375 -17.671875 C 14.644531 -17.296875 14.414062 -16.914062 14.15625 -16.53125 C 13.894531 -16.144531 13.675781 -15.820312 13.5 -15.5625 C 13.300781 -15.238281 13.132812 -14.953125 13 -14.703125 C 12.875 -14.453125 12.601562 -14.210938 12.1875 -13.984375 C 12.132812 -13.941406 12.085938 -13.875 12.046875 -13.78125 C 12.015625 -13.6875 11.972656 -13.609375 11.921875 -13.546875 C 11.816406 -13.484375 11.765625 -13.429688 11.765625 -13.390625 L 11.765625 -13.34375 C 11.765625 -13.175781 11.695312 -13.046875 11.5625 -12.953125 C 11.425781 -12.867188 11.296875 -12.828125 11.171875 -12.828125 L 11.09375 -12.484375 C 10.914062 -12.253906 10.773438 -12.113281 10.671875 -12.0625 C 10.578125 -12.019531 10.457031 -11.929688 10.3125 -11.796875 C 10.25 -11.722656 10.1875 -11.628906 10.125 -11.515625 C 10.070312 -11.410156 10.019531 -11.316406 9.96875 -11.234375 C 10.007812 -11.316406 9.890625 -11.195312 9.609375 -10.875 C 9.335938 -10.5625 8.992188 -10.054688 8.578125 -9.359375 C 8.273438 -8.890625 7.9375 -8.414062 7.5625 -7.9375 C 7.1875 -7.457031 6.847656 -6.972656 6.546875 -6.484375 C 6.242188 -5.992188 6.03125 -5.5 5.90625 -5 C 5.707031 -4.320312 5.554688 -3.585938 5.453125 -2.796875 C 5.359375 -2.003906 5.3125 -1.273438 5.3125 -0.609375 C 5.3125 -0.503906 5.320312 -0.398438 5.34375 -0.296875 C 5.363281 -0.203125 5.414062 -0.15625 5.5 -0.15625 C 5.613281 -0.269531 5.691406 -0.429688 5.734375 -0.640625 C 5.773438 -0.859375 5.816406 -1.035156 5.859375 -1.171875 C 5.984375 -1.597656 6.125 -2.015625 6.28125 -2.421875 C 6.4375 -2.835938 6.625 -3.234375 6.84375 -3.609375 C 7.0625 -4.003906 7.296875 -4.34375 7.546875 -4.625 C 7.804688 -4.90625 8.023438 -5.253906 8.203125 -5.671875 C 8.347656 -6.023438 8.535156 -6.351562 8.765625 -6.65625 C 8.992188 -6.957031 9.242188 -7.253906 9.515625 -7.546875 C 9.742188 -7.773438 9.984375 -8.046875 10.234375 -8.359375 C 10.484375 -8.671875 10.796875 -8.828125 11.171875 -8.828125 C 11.296875 -8.828125 11.515625 -8.785156 11.828125 -8.703125 C 12.140625 -8.617188 12.4375 -8.492188 12.71875 -8.328125 C 13.007812 -8.171875 13.179688 -7.96875 13.234375 -7.71875 C 13.085938 -6.914062 12.921875 -6.117188 12.734375 -5.328125 C 12.546875 -4.535156 12.359375 -3.726562 12.171875 -2.90625 C 12.128906 -2.800781 12.078125 -2.625 12.015625 -2.375 C 11.953125 -2.125 11.921875 -1.882812 11.921875 -1.65625 C 11.921875 -1.332031 12.03125 -1.164062 12.25 -1.15625 C 12.351562 -1.15625 12.453125 -1.15625 12.546875 -1.15625 C 12.648438 -1.15625 12.753906 -1.171875 12.859375 -1.203125 C 12.859375 -1.222656 12.921875 -1.304688 13.046875 -1.453125 C 13.171875 -1.609375 13.320312 -1.78125 13.5 -1.96875 C 13.675781 -2.15625 13.847656 -2.316406 14.015625 -2.453125 C 14.191406 -2.597656 14.316406 -2.671875 14.390625 -2.671875 C 14.796875 -2.671875 15.015625 -2.554688 15.046875 -2.328125 C 15.085938 -2.109375 15.144531 -1.875 15.21875 -1.625 Z M 7.359375 -12.8125 C 7.117188 -12.1875 6.890625 -11.5625 6.671875 -10.9375 C 6.460938 -10.3125 6.253906 -9.6875 6.046875 -9.0625 C 7.222656 -10.445312 8.238281 -11.847656 9.09375 -13.265625 C 9.25 -13.523438 9.398438 -13.804688 9.546875 -14.109375 C 9.703125 -14.410156 9.894531 -14.660156 10.125 -14.859375 C 10.519531 -15.222656 10.800781 -15.6875 10.96875 -16.25 C 11.144531 -16.820312 11.320312 -17.375 11.5 -17.90625 C 11.207031 -17.851562 10.988281 -17.769531 10.84375 -17.65625 C 10.707031 -17.539062 10.53125 -17.367188 10.3125 -17.140625 C 10.207031 -17.015625 10.015625 -16.8125 9.734375 -16.53125 C 9.460938 -16.257812 9.171875 -15.96875 8.859375 -15.65625 C 8.546875 -15.34375 8.28125 -15.050781 8.0625 -14.78125 C 7.851562 -14.519531 7.75 -14.328125 7.75 -14.203125 L 7.8125 -14.03125 C 7.8125 -13.90625 7.75 -13.71875 7.625 -13.46875 C 7.507812 -13.21875 7.421875 -13 7.359375 -12.8125 Z M 7.359375 -12.8125 "/></g></g></g></svg>